<?xml version="1.0" standalone="no"?>
<!DOCTYPE svg PUBLIC "-//W3C//DTD SVG 20010904//EN"
 "http://www.w3.org/TR/2001/REC-SVG-20010904/DTD/svg10.dtd">
<svg version="1.0" xmlns="http://www.w3.org/2000/svg"
 width="1069.000000pt" height="221.000000pt" viewBox="0 0 1069.000000 221.000000"
 preserveAspectRatio="xMidYMid meet">

<g transform="translate(0.000000,221.000000) scale(0.100000,-0.100000)"
fill="#000000" stroke="none">
<path d="M6960 2199 c-36 -5 -110 -14 -165 -19 -55 -5 -251 -25 -435 -44 -184
-20 -488 -51 -675 -71 -187 -19 -441 -46 -565 -59 -124 -14 -310 -34 -415 -45
-104 -12 -246 -27 -315 -36 -69 -8 -188 -21 -265 -30 -77 -9 -214 -25 -305
-36 -91 -10 -185 -21 -210 -24 -254 -27 -634 -68 -755 -80 -82 -9 -188 -20
-235 -25 -47 -5 -150 -16 -230 -25 -80 -8 -250 -27 -379 -41 -129 -14 -275
-26 -325 -26 -125 0 -313 -20 -266 -28 28 -5 19 -8 -47 -14 -45 -4 -87 -5 -94
0 -7 4 -10 3 -6 -3 6 -10 -14 -13 -313 -48 -398 -47 -563 -65 -583 -64 -21 0
-21 1 -2 9 13 6 15 9 5 9 -26 1 -36 -13 -38 -54 -13 -191 -22 -246 -46 -278
-32 -43 -100 -180 -119 -242 -36 -116 -42 -163 -41 -310 0 -135 3 -158 27
-232 44 -132 116 -225 217 -279 28 -15 56 -19 135 -19 88 0 107 3 155 26 70
34 162 113 211 181 l37 53 479 33 c263 18 537 37 608 42 72 5 198 14 280 20
496 34 593 41 715 50 74 5 297 21 495 35 198 14 484 35 635 46 503 36 1242 88
1480 104 129 8 334 22 455 30 121 8 290 20 375 25 85 6 221 15 302 20 81 6
158 10 173 10 19 0 28 7 35 27 6 16 18 42 27 58 33 60 366 498 490 645 44 52
33 45 -112 -78 -90 -75 -139 -102 -186 -102 -21 0 -43 26 -34 40 10 16 -1 12
-59 -20 -53 -30 -111 -41 -135 -25 -8 4 -11 22 -9 45 l3 37 -55 -38 c-110 -74
-218 -99 -434 -99 -80 0 -174 -6 -216 -14 -70 -13 -165 -21 -217 -18 -31 3
-29 18 4 39 22 15 57 19 183 23 152 5 157 6 225 39 71 35 124 83 305 277 73
77 171 154 197 154 7 0 13 4 13 8 0 14 -368 32 -445 22 -126 -16 -202 -65
-212 -135 -4 -34 -1 -44 20 -63 75 -70 268 -11 255 77 -5 32 8 41 30 19 22
-22 13 -55 -23 -86 -59 -53 -170 -74 -240 -47 -51 19 -69 44 -67 94 3 67 60
123 167 163 57 21 75 22 395 22 l335 1 59 30 c75 38 97 78 66 118 -70 89 -304
40 -377 -79 -11 -17 -12 -17 -12 -2 -1 29 66 94 122 118 57 25 154 37 211 26
19 -4 49 -18 66 -32 36 -31 41 -82 12 -129 -26 -41 -112 -82 -202 -96 -41 -6
-85 -13 -96 -15 -28 -5 -91 -57 -137 -114 -20 -25 -59 -73 -87 -108 -70 -86
-157 -153 -272 -209 -53 -27 -97 -50 -98 -53 0 -3 56 -2 125 2 206 11 296 43
420 148 116 98 258 155 300 120 13 -10 23 -8 60 11 74 39 74 14 -1 -71 -36
-41 -72 -88 -80 -103 -48 -90 63 -13 306 213 63 59 125 112 137 119 25 13 53
15 53 4 0 -5 -35 -48 -76 -98 -58 -69 -297 -365 -407 -505 -32 -41 -177 -240
-202 -278 -15 -23 -25 -45 -22 -48 3 -3 54 59 113 138 60 79 126 166 149 193
22 28 54 68 70 89 65 84 214 253 261 295 90 80 164 118 209 107 42 -11 31 -44
-40 -126 -36 -41 -65 -78 -65 -82 0 -34 82 11 190 105 97 85 249 158 294 141
27 -10 30 -44 5 -70 -31 -33 -102 -77 -172 -105 -51 -20 -58 -26 -55 -49 7
-56 112 -14 257 103 98 78 214 144 271 153 26 4 42 1 59 -13 23 -19 23 -20 7
-50 -17 -34 -52 -51 -68 -35 -6 6 -6 17 1 30 6 11 11 28 11 37 0 14 -6 13 -41
-7 -48 -27 -112 -96 -141 -152 -19 -37 -19 -40 -3 -52 35 -26 146 25 257 119
53 45 121 90 212 139 11 6 45 13 77 15 52 5 57 4 64 -17 7 -22 7 -22 28 -2 42
38 97 55 97 31 0 -7 -28 -44 -63 -83 -110 -125 -123 -146 -88 -146 39 0 306
222 297 247 -13 34 52 84 90 69 15 -6 15 -9 -5 -30 -27 -29 -19 -36 41 -36 71
0 71 -17 -2 -97 -64 -71 -88 -108 -76 -120 10 -10 59 21 174 111 56 45 123 94
149 110 43 27 116 49 128 38 2 -3 -24 -37 -58 -76 -88 -99 -120 -143 -112
-156 9 -15 87 29 159 91 86 73 141 109 226 146 89 39 155 44 165 13 8 -25 17
-25 40 0 19 21 82 43 97 34 5 -3 -20 -37 -54 -76 -81 -90 -132 -157 -125 -165
13 -12 56 10 141 72 48 37 91 63 95 59 3 -3 -7 -16 -23 -28 -16 -11 -50 -38
-75 -59 -68 -55 -141 -89 -187 -85 -34 3 -40 7 -44 31 l-5 29 -27 -21 c-69
-54 -181 -79 -208 -46 -8 10 -10 28 -5 51 l6 37 -49 -41 c-57 -48 -145 -92
-184 -92 -17 0 -31 7 -38 20 -14 25 6 65 62 126 22 24 37 44 32 44 -5 0 -46
-31 -90 -68 -127 -106 -175 -134 -235 -136 -38 -1 -54 3 -62 16 -16 25 29 85
113 153 38 32 70 61 70 66 0 4 -24 5 -52 2 -46 -5 -60 -12 -103 -53 -94 -88
-207 -179 -251 -200 -57 -28 -118 -24 -122 8 -2 12 -5 22 -7 22 -2 0 -26 -14
-54 -31 -57 -36 -132 -49 -157 -28 -11 9 -14 23 -11 46 3 18 4 33 1 33 -3 0
-22 -13 -42 -29 -52 -41 -115 -72 -185 -90 -63 -17 -89 -41 -44 -41 14 0 33
-7 41 -16 19 -18 19 -17 5 -47 -24 -53 -152 -77 -200 -38 -30 24 -19 39 13 17
46 -33 142 -6 136 37 -2 18 -9 22 -35 21 -38 -2 -42 9 -13 33 25 22 25 29 -1
36 -18 5 -21 12 -17 51 2 25 2 46 0 46 -1 0 -26 -18 -54 -41 -70 -55 -119 -78
-189 -91 -50 -9 -63 -8 -84 6 -27 18 -34 63 -13 84 28 28 -11 9 -47 -23 -51
-45 -156 -98 -185 -93 -63 9 -47 65 47 161 31 32 53 60 49 64 -13 13 -98 -41
-160 -102 -93 -90 -252 -286 -508 -625 -31 -41 -55 -76 -53 -78 4 -4 601 35
1055 68 74 6 297 21 495 35 198 14 421 29 495 35 752 53 1463 100 1533 100
l67 0 0 600 0 600 -1832 -1 c-1009 -1 -1862 -6 -1898 -10z m3596 -110 c30 -27
54 -77 54 -111 0 -12 -9 -41 -21 -65 -61 -126 -248 -123 -290 4 -22 66 13 147
78 183 54 29 142 24 179 -11z m-681 -90 c15 -23 -77 -91 -97 -71 -16 16 -1 57
24 70 30 14 65 15 73 1z m-4370 -139 c15 -24 -15 -38 -73 -34 -109 9 -172 -55
-172 -176 0 -89 21 -129 77 -146 23 -6 68 -26 99 -44 66 -37 70 -34 80 48 4
30 12 55 18 57 6 3 67 11 135 20 87 11 135 22 158 36 38 24 41 17 13 -29 -27
-44 -83 -67 -199 -84 l-94 -13 -13 -45 -13 -45 44 -57 c48 -62 85 -125 85
-145 0 -29 -102 2 -180 53 l-40 27 -41 -38 c-97 -88 -254 -128 -335 -87 -136
69 -89 258 81 327 46 19 59 28 56 42 -2 10 -4 57 -5 104 -1 79 1 88 27 123 36
47 95 86 155 102 58 16 129 17 137 4z m-3892 -237 c-13 -2 -33 -2 -45 0 -13 2
-3 4 22 4 25 0 35 -2 23 -4z m8317 -407 c0 -77 -3 -95 -16 -100 -20 -8 -34 1
-34 20 0 20 -9 18 -29 -8 -24 -28 -41 -16 -41 30 0 44 23 82 51 82 14 0 19 7
19 29 0 27 8 34 43 40 4 0 7 -41 7 -93z m-290 44 c0 -24 -26 -38 -42 -22 -16
16 -2 42 22 42 13 0 20 -7 20 -20z m580 -16 c0 -9 -12 -15 -32 -15 -31 -2 -31
-2 7 -8 28 -4 41 -12 43 -24 8 -39 -60 -77 -108 -62 -33 10 -23 25 18 26 l37
2 -34 6 c-46 8 -60 31 -38 64 12 19 27 27 54 29 45 4 53 1 53 -18z m-144 -19
c14 -21 14 -30 5 -54 -22 -51 -98 -64 -121 -21 -15 27 -13 35 16 69 33 40 76
42 100 6z m-1000 -11 c11 -44 -3 -105 -34 -143 -33 -41 -49 -47 -75 -27 -25
19 -7 54 30 58 25 3 28 7 25 33 -8 61 -18 61 -53 -1 -19 -32 -43 -78 -53 -100
-16 -38 -60 -73 -74 -59 -5 5 24 118 44 169 6 16 4 18 -15 13 -17 -4 -21 -2
-19 11 3 19 93 70 104 60 3 -4 1 -21 -5 -39 l-11 -31 45 41 c52 48 82 53 91
15z m72 -38 c-3 -34 -1 -71 4 -81 15 -25 -14 -54 -36 -35 -12 9 -16 32 -16 90
0 82 3 90 33 90 18 0 19 -5 15 -64z m634 31 c11 -17 10 -97 -1 -97 -5 0 -16
-3 -25 -6 -12 -5 -16 0 -16 17 l0 22 -23 -21 c-29 -27 -44 -28 -52 -1 -9 26 2
69 23 92 13 14 24 17 52 12 19 -4 38 -12 42 -18z m-143 -61 c-6 -66 -27 -112
-56 -123 -8 -3 -19 0 -24 8 -12 19 -11 25 5 42 8 8 18 42 22 75 5 52 10 61 28
64 11 2 24 3 27 2 3 -2 2 -32 -2 -68z m-202 2 c-5 -38 -34 -84 -46 -73 -3 3
-4 23 -2 44 1 22 -2 42 -8 46 -7 4 -11 -10 -11 -39 0 -25 -4 -46 -9 -46 -5 0
-16 -3 -25 -6 -14 -5 -16 3 -16 55 0 41 4 61 13 62 6 1 22 3 35 4 12 1 25 5
29 8 3 4 15 2 25 -4 17 -9 19 -18 15 -51z m121 29 c3 -22 -1 -30 -17 -34 -12
-3 -21 -9 -21 -14 0 -5 7 -6 16 -2 23 9 14 -17 -12 -33 -12 -8 -27 -9 -41 -3
-19 7 -23 16 -23 52 0 53 15 69 60 65 30 -3 35 -7 38 -31z m-1108 -76 c0 -72
-3 -90 -16 -95 -27 -10 -34 -7 -34 17 l-1 22 -18 -22 c-23 -27 -37 -29 -45 -7
-16 43 15 114 50 114 8 0 14 10 14 24 0 13 6 27 13 29 34 14 37 8 37 -82z
m834 73 c24 -24 21 -91 -5 -104 -17 -10 -21 -8 -26 10 l-6 21 -23 -22 c-12
-11 -27 -18 -33 -14 -17 10 -13 86 6 107 20 22 66 24 87 2z m-1086 -33 c3 -19
0 -22 -17 -16 -12 3 -21 2 -21 -3 0 -5 9 -12 20 -15 11 -3 20 -10 20 -15 0 -6
-9 -14 -20 -17 -16 -5 -20 -15 -20 -56 0 -27 -2 -49 -4 -49 -2 0 -11 -3 -20
-6 -13 -5 -16 2 -16 43 0 27 -5 54 -11 60 -8 8 -8 13 0 17 6 4 11 18 11 31 0
26 36 57 60 53 8 -2 16 -14 18 -27z m-7568 -9 c0 -8 -6 -12 -15 -9 -8 4 -17 2
-20 -3 -3 -4 1 -10 7 -13 10 -3 8 -13 -6 -38 -10 -19 -32 -60 -48 -91 -17 -32
-35 -58 -42 -58 -7 0 -6 3 2 9 11 7 11 9 -1 14 -18 7 -30 -16 -15 -31 7 -7 6
-16 -1 -29 -11 -16 -11 -16 -6 5 5 16 2 22 -9 22 -23 0 -20 33 4 48 11 7 20
22 20 35 0 18 2 19 10 7 8 -12 10 -11 10 7 0 22 36 113 44 113 3 0 3 -9 1 -19
-4 -22 21 -36 31 -19 4 7 2 14 -4 16 -26 8 -6 49 23 49 8 0 15 -7 15 -15z
m296 -12 c-3 -20 -2 -29 4 -25 7 4 9 -15 7 -54 -2 -33 0 -58 5 -55 4 3 8 -4 8
-16 0 -12 -4 -19 -9 -16 -8 5 -6 -49 3 -63 3 -4 -15 -8 -40 -8 -37 0 -44 3
-38 16 32 77 44 129 44 186 0 41 4 65 11 65 7 0 9 -11 5 -30z m7784 11 c0 -14
-8 -21 -27 -24 -23 -3 -21 -4 10 -6 28 -1 37 -5 37 -19 0 -35 -25 -55 -70 -56
-52 -1 -70 23 -18 25 27 1 29 3 8 6 -53 10 -64 39 -28 73 29 27 88 28 88 1z
m-130 -16 c29 -54 -30 -122 -84 -97 -48 22 -25 106 32 115 15 2 30 5 33 6 3 0
12 -10 19 -24z m-7846 -18 c7 -7 26 -33 41 -57 24 -37 29 -56 29 -110 0 -75
-19 -117 -81 -174 -36 -33 -42 -35 -103 -35 -36 1 -80 -4 -98 -10 -28 -8 -33
-8 -28 4 2 7 1 15 -3 17 -5 2 -4 14 1 28 7 20 11 22 19 10 9 -13 10 -12 5 2
-3 9 12 50 32 90 20 40 47 96 59 123 12 28 31 71 43 97 19 44 22 47 46 38 14
-6 31 -16 38 -23z m6980 14 c12 -13 15 -27 11 -41 -6 -19 -9 -20 -23 -7 -10 8
-27 18 -39 21 -20 6 -23 4 -23 -18 0 -14 9 -31 22 -40 18 -13 19 -18 8 -31 -7
-8 -24 -14 -39 -13 -22 3 -26 -1 -26 -22 0 -23 3 -25 50 -25 28 1 58 5 68 9
25 12 21 -10 -8 -39 -44 -45 -165 -27 -165 25 0 10 11 31 24 47 13 15 26 44
30 64 14 76 72 112 110 70z m594 -19 c19 -25 15 -80 -7 -92 -28 -14 -31 -13
-31 13 l-1 22 -19 -24 c-27 -31 -50 -21 -50 22 0 49 32 86 67 80 15 -3 34 -12
41 -21z m-348 -16 c0 -5 -7 -14 -16 -21 -13 -9 -14 -16 -5 -33 20 -38 -11 -71
-38 -38 -6 7 -12 32 -13 56 -2 52 22 77 53 57 10 -6 19 -16 19 -21z m122 -1
c15 -34 1 -72 -34 -93 -24 -14 -28 -14 -52 1 -40 27 -31 76 19 105 32 18 55
14 67 -13z m-232 -10 c0 -9 -10 -15 -27 -16 -25 -1 -24 -2 7 -8 69 -12 34 -85
-38 -79 -20 2 -36 8 -34 13 2 6 14 9 27 7 14 -2 25 1 25 6 0 6 -8 9 -17 7 -40
-6 -56 34 -26 67 20 23 83 25 83 3z m-6916 -211 c9 -3 16 -10 16 -15 0 -4 -6
-6 -14 -3 -19 7 -40 -54 -25 -73 7 -7 9 -16 5 -20 -3 -3 -6 -1 -6 5 0 6 -9 10
-19 9 -11 0 -17 -5 -15 -9 3 -4 0 -8 -7 -8 -6 0 -9 -8 -6 -20 4 -17 0 -20 -31
-20 -21 0 -47 3 -59 6 l-22 6 27 37 c15 20 30 38 35 39 4 2 7 9 7 16 0 39 67
68 114 50z m-355 -188 c-2 -2 -22 -6 -44 -9 -28 -5 -34 -4 -20 3 19 8 73 14
64 6z m181 -26 c11 -7 7 -10 -18 -10 -18 0 -31 -3 -29 -8 3 -4 -8 -7 -24 -7
l-30 -1 23 18 c26 20 55 23 78 8z m75 -10 c-3 -5 -11 -10 -16 -10 -6 0 -7 5
-4 10 3 6 11 10 16 10 6 0 7 -4 4 -10z m-223 -85 c3 -13 1 -22 -3 -19 -9 5
-13 44 -5 44 2 0 6 -11 8 -25z"/>
<path d="M10392 2073 c-22 -10 -41 -32 -55 -59 -18 -38 -19 -48 -8 -84 39
-130 241 -90 245 48 2 92 -91 140 -182 95z m106 -35 c17 -17 15 -44 -4 -62
-14 -15 -14 -18 5 -42 25 -31 26 -44 7 -44 -8 0 -24 14 -36 30 -12 17 -30 30
-41 30 -15 0 -19 -7 -19 -35 0 -24 -5 -35 -15 -35 -12 0 -15 16 -15 85 l0 85
53 0 c29 0 58 -5 65 -12z"/>
<path d="M10410 2000 c0 -21 33 -28 59 -11 21 13 4 31 -30 31 -22 0 -29 -5
-29 -20z"/>
<path d="M5175 1453 c-73 -38 -105 -88 -105 -161 0 -40 5 -54 26 -76 54 -53
181 -32 267 44 l37 32 -90 89 c-50 49 -94 89 -98 89 -4 -1 -20 -8 -37 -17z"/>
<path d="M5320 1462 c0 -13 52 -83 85 -112 l27 -25 24 30 c13 17 22 35 21 40
-4 11 -97 60 -134 70 -13 4 -23 2 -23 -3z"/>
<path d="M5480 1340 c-25 -36 -28 -31 48 -77 24 -14 45 -23 48 -20 8 7 -21 66
-49 101 l-24 29 -23 -33z"/>
<path d="M9856 1203 c-9 -9 -7 -33 3 -33 12 0 22 28 12 34 -5 3 -11 3 -15 -1z"/>
<path d="M10005 1210 c-10 -16 4 -50 21 -50 8 0 14 8 14 19 0 23 -25 47 -35
31z"/>
<path d="M9710 1169 c0 -11 5 -17 10 -14 6 3 10 13 10 21 0 8 -4 14 -10 14 -5
0 -10 -9 -10 -21z"/>
<path d="M9500 1165 c0 -8 5 -15 10 -15 6 0 10 7 10 15 0 8 -4 15 -10 15 -5 0
-10 -7 -10 -15z"/>
<path d="M8381 1074 c0 -11 3 -14 6 -6 3 7 2 16 -1 19 -3 4 -6 -2 -5 -13z"/>
<path d="M9220 1135 c0 -8 5 -15 10 -15 6 0 10 7 10 15 0 8 -4 15 -10 15 -5 0
-10 -7 -10 -15z"/>
<path d="M547 1063 c-4 -3 -7 -11 -7 -17 0 -6 5 -5 12 2 6 6 9 14 7 17 -3 3
-9 2 -12 -2z"/>
<path d="M540 1020 c0 -5 5 -10 11 -10 5 0 7 5 4 10 -3 6 -8 10 -11 10 -2 0
-4 -4 -4 -10z"/>
<path d="M8510 1091 c0 -17 12 -41 21 -41 5 0 9 11 9 25 0 16 -6 25 -15 25 -8
0 -15 -4 -15 -9z"/>
<path d="M8240 1060 c0 -5 5 -10 10 -10 6 0 10 5 10 10 0 6 -4 10 -10 10 -5 0
-10 -4 -10 -10z"/>
<path d="M8022 1039 c1 -12 9 -24 16 -27 9 -3 13 3 10 19 -1 12 -9 24 -16 27
-9 3 -13 -3 -10 -19z"/>
<path d="M880 800 c0 -5 5 -10 11 -10 5 0 7 5 4 10 -3 6 -8 10 -11 10 -2 0 -4
-4 -4 -10z"/>
<path d="M6537 2173 c18 -2 50 -2 70 0 21 2 7 4 -32 4 -38 0 -55 -2 -38 -4z"/>
<path d="M6308 2163 c23 -2 61 -2 85 0 23 2 4 4 -43 4 -47 0 -66 -2 -42 -4z"/>
<path d="M9973 1771 c-68 -46 -183 -162 -183 -185 0 -24 41 -20 96 11 64 35
194 164 194 192 0 33 -40 26 -107 -18z"/>
<path d="M8854 1684 c-35 -17 -176 -150 -193 -183 -10 -17 -9 -22 4 -27 25
-10 57 3 116 48 61 47 149 144 149 165 0 17 -38 16 -76 -3z"/>
<path d="M8108 1603 c-46 -37 -102 -102 -95 -110 10 -10 117 60 139 89 18 26
18 48 -1 48 -5 0 -24 -12 -43 -27z"/>
<path d="M1313 1603 c9 -2 25 -2 35 0 9 3 1 5 -18 5 -19 0 -27 -2 -17 -5z"/>
<path d="M7143 1502 c-101 -81 -173 -182 -129 -182 44 0 226 163 226 202 0 30
-44 21 -97 -20z"/>
<path d="M10106 821 c-10 -11 -40 -29 -67 -40 -35 -16 -49 -27 -49 -41 0 -25
16 -25 65 0 22 11 40 20 42 20 1 0 4 -44 5 -97 l3 -98 43 -3 42 -3 0 140 0
141 -33 0 c-21 0 -41 -8 -51 -19z"/>
<path d="M9705 809 c-45 -11 -85 -44 -85 -70 0 -10 12 -27 27 -38 14 -12 24
-22 22 -24 -2 -1 -13 -7 -24 -13 -27 -15 -42 -60 -29 -82 19 -31 66 -47 134
-46 74 1 121 21 146 60 21 32 7 70 -32 84 l-26 10 26 25 c72 67 -26 125 -159
94z m91 -43 c15 -12 17 -18 8 -33 -21 -34 -104 -29 -104 7 0 36 59 52 96 26z
m-2 -106 c18 -6 26 -17 26 -34 0 -32 -22 -48 -66 -48 -48 0 -68 20 -55 54 13
35 50 46 95 28z"/>
<path d="M9321 772 c-19 -9 -44 -29 -55 -44 -19 -26 -19 -30 -4 -62 25 -52
107 -70 181 -41 13 5 17 2 17 -12 0 -42 -76 -76 -104 -47 -17 16 -54 18 -76 4
-13 -8 -12 -13 8 -32 19 -20 33 -23 90 -22 112 0 172 52 172 146 0 51 -30 105
-66 118 -40 16 -126 12 -163 -8z m123 -43 c25 -36 -4 -79 -54 -79 -33 0 -50
17 -50 50 0 35 17 50 56 50 22 0 38 -7 48 -21z"/>
<path d="M8991 756 c-36 -13 -74 -52 -65 -67 11 -19 60 -9 82 16 23 26 60 32
93 15 10 -6 19 -16 19 -23 0 -18 -43 -56 -113 -102 -54 -35 -105 -90 -94 -101
2 -3 67 -1 143 3 135 8 139 9 142 31 4 23 2 24 -72 20 -42 -2 -76 0 -76 4 0 4
27 25 59 48 99 66 117 114 59 150 -38 23 -122 26 -177 6z"/>
<path d="M8440 712 c-46 -23 -53 -52 -12 -52 16 0 35 7 42 15 16 19 86 20 93
1 7 -17 -20 -42 -48 -48 -11 -2 -21 -11 -23 -21 -3 -13 4 -17 30 -17 58 0 79
-44 36 -74 -30 -21 -55 -20 -83 2 -26 21 -85 19 -85 -3 0 -37 106 -65 176 -46
91 24 125 91 67 128 -16 9 -30 18 -32 20 -3 2 5 10 17 19 28 20 28 58 0 78
-31 22 -133 21 -178 -2z"/>
<path d="M8235 713 c-120 -6 -120 -6 -140 -75 -14 -50 -14 -62 -3 -69 18 -12
30 -11 69 5 55 22 99 5 99 -39 0 -45 -61 -67 -100 -37 -17 13 -35 18 -57 15
-78 -12 -9 -67 82 -68 68 0 120 24 145 67 34 62 -33 124 -122 113 -27 -3 -48
-2 -48 2 1 26 23 36 89 41 65 4 72 7 69 25 -3 24 -4 24 -83 20z"/>
<path d="M7810 679 c-32 -13 -60 -39 -60 -56 0 -22 63 -16 78 8 10 16 21 19
55 17 35 -2 43 -7 45 -25 3 -18 -13 -34 -79 -82 -85 -63 -117 -97 -103 -111
13 -11 242 4 255 17 24 24 -2 35 -72 31 -38 -3 -69 -2 -69 1 0 3 22 21 49 40
97 65 118 106 75 146 -23 21 -36 25 -88 24 -34 0 -72 -5 -86 -10z"/>
<path d="M7500 659 c-28 -11 -60 -38 -60 -51 0 -14 57 -9 70 8 18 21 84 15 88
-9 3 -12 -7 -22 -33 -33 -43 -17 -41 -38 3 -42 41 -4 54 -21 39 -52 -16 -31
-70 -39 -97 -15 -13 12 -27 15 -49 10 -39 -8 -39 -18 -2 -44 33 -24 127 -29
164 -10 38 20 67 52 67 74 0 23 -28 55 -49 55 -7 0 -2 13 13 31 21 25 24 34
15 50 -5 11 -21 24 -35 29 -32 13 -102 12 -134 -1z"/>
<path d="M8768 603 c-33 -4 -38 -8 -38 -30 l0 -26 73 7 c77 8 93 16 84 40 -6
16 -32 18 -119 9z"/>
<path d="M7098 543 c-36 -9 -17 -23 32 -23 l50 0 -29 -42 c-41 -59 -48 -88
-23 -88 14 0 24 13 36 43 9 24 30 56 46 72 17 16 30 32 30 37 0 8 -111 9 -142
1z"/>
<path d="M6938 513 c-39 -26 -52 -51 -20 -38 9 4 23 9 30 12 9 4 12 -10 12
-51 0 -49 2 -56 20 -56 17 0 20 7 22 50 0 28 1 62 2 77 1 37 -20 39 -66 6z"/>
<path d="M10505 509 c-55 -5 -155 -11 -223 -15 -99 -5 -122 -9 -118 -20 3 -8
4 -14 3 -15 -1 0 -49 -2 -106 -5 -69 -4 -101 -2 -97 5 4 6 -5 9 -23 8 -16 -1
-27 -6 -24 -10 2 -4 -8 -4 -24 0 -44 12 -198 9 -214 -3 -41 -33 -392 -60 -402
-31 -8 26 -449 1 -471 -27 -14 -17 -63 -22 -411 -41 -1060 -57 -1212 -63
-1285 -47 -41 9 -448 -3 -640 -19 -211 -18 -234 -20 -246 -30 -18 -15 -229
-25 -220 -11 5 9 -6 12 -36 12 -127 0 -745 -30 -1358 -65 -513 -30 -599 -35
-785 -45 -487 -27 -658 -41 -687 -56 -23 -12 -111 -20 -362 -34 -291 -16 -332
-16 -339 -3 -10 16 32 18 -567 -18 -190 -11 -385 -24 -435 -28 -49 -5 2013 -9
4583 -10 l4672 -1 0 260 0 260 -42 -2 c-24 -1 -88 -5 -143 -9z"/>
<path d="M4387 454 c-3 -4 -35 -7 -69 -8 -35 -1 -69 -5 -75 -9 -9 -6 -13 -36
-13 -93 0 -78 1 -84 20 -84 11 0 22 6 25 13 3 11 14 108 15 135 0 6 5 12 11
12 7 0 10 -25 7 -72 l-3 -73 28 -3 27 -3 0 75 c0 41 5 78 10 81 6 4 10 -23 10
-74 0 -79 1 -81 24 -81 23 0 25 4 31 77 5 46 4 83 -2 92 -11 18 -35 25 -46 15z"/>
<path d="M3528 418 c-2 -16 -10 -22 -31 -23 -38 -1 -47 -19 -47 -96 0 -69 15
-99 42 -83 7 4 26 7 44 6 29 -2 32 0 38 35 3 21 6 71 6 111 0 70 -1 72 -24 72
-18 0 -26 -6 -28 -22z m-5 -116 c-3 -29 -10 -52 -14 -52 -10 0 -12 80 -3 105
13 32 23 -1 17 -53z"/>
<path d="M4096 418 c-10 -15 -16 -45 -16 -85 0 -51 3 -64 19 -73 32 -16 60
-12 86 15 21 20 25 34 25 79 0 65 -16 86 -65 86 -24 0 -39 -7 -49 -22z m56
-77 c-2 -34 -8 -59 -13 -55 -10 6 -12 107 -3 117 14 14 19 -4 16 -62z"/>
<path d="M3963 422 c-18 -11 -33 -58 -33 -103 0 -74 66 -102 113 -47 24 29 21
48 -8 48 -18 0 -25 -5 -25 -20 0 -11 -4 -20 -10 -20 -6 0 -10 27 -10 60 0 33
4 60 10 60 6 0 10 -6 10 -14 0 -19 14 -28 34 -20 19 7 21 35 4 52 -13 13 -66
16 -85 4z"/>
<path d="M3238 393 c-8 -18 -12 -57 -10 -111 3 -79 4 -83 25 -80 19 3 23 11
29 67 4 35 10 71 13 79 3 8 1 20 -5 27 -8 9 -8 15 0 20 18 11 11 25 -14 25
-17 0 -29 -9 -38 -27z"/>
<path d="M3768 408 c-35 -29 -26 -82 17 -98 17 -6 25 -17 25 -32 l0 -23 -19
24 c-20 26 -51 24 -51 -3 0 -41 57 -59 98 -30 36 25 30 70 -13 95 -36 22 -43
33 -25 44 6 3 13 -1 16 -9 8 -20 33 -21 40 -1 14 37 -52 61 -88 33z"/>
<path d="M3620 390 c-16 -16 -20 -33 -20 -85 0 -60 2 -66 25 -77 29 -13 82 5
89 31 27 95 10 151 -44 151 -17 0 -39 -9 -50 -20z m50 -70 c0 -33 -4 -60 -10
-60 -11 0 -14 103 -3 113 12 12 13 8 13 -53z"/>
<path d="M3013 373 c-7 -14 -9 -123 -4 -175 1 -5 14 -8 30 -8 l29 0 -6 65 c-3
43 -1 70 7 79 9 11 9 19 -1 35 -16 26 -44 27 -55 4z"/>
<path d="M3330 370 c-28 -28 -26 -50 5 -50 18 0 25 5 25 20 0 11 5 20 10 20 6
0 10 -8 10 -19 0 -12 -13 -25 -35 -35 -31 -15 -35 -21 -35 -56 0 -38 7 -46 35
-40 6 1 26 3 45 3 l35 2 3 73 c2 46 -2 79 -9 88 -17 20 -66 17 -89 -6z m50
-105 c0 -14 -4 -25 -10 -25 -5 0 -10 11 -10 25 0 14 5 25 10 25 6 0 10 -11 10
-25z"/>
<path d="M3122 368 c-23 -11 -26 -21 -36 -94 -10 -76 48 -111 99 -59 20 20 25
34 25 78 0 76 -31 102 -88 75z m38 -82 c0 -30 -4 -58 -10 -61 -6 -4 -10 17
-10 54 0 34 4 61 10 61 6 0 10 -24 10 -54z"/>
<path d="M2390 350 c0 -5 11 -10 25 -10 14 0 25 5 25 10 0 6 -11 10 -25 10
-14 0 -25 -4 -25 -10z"/>
<path d="M2884 335 c-20 -31 -11 -61 27 -80 16 -9 29 -22 29 -30 0 -19 -16
-19 -24 0 -8 22 -46 19 -46 -3 0 -54 90 -58 110 -6 12 32 3 52 -31 70 -16 8
-29 21 -29 29 0 19 16 19 23 1 4 -9 14 -12 26 -9 24 6 25 8 11 34 -16 29 -75
26 -96 -6z"/>
<path d="M2757 332 c-23 -25 -28 -139 -7 -152 38 -25 100 4 100 46 0 33 -28
31 -41 -3 -7 -18 -13 -23 -20 -16 -21 21 -5 48 31 53 33 5 35 8 33 39 -1 19
-7 38 -15 42 -22 15 -64 10 -81 -9z m53 -33 c0 -5 -4 -9 -10 -9 -5 0 -10 7
-10 16 0 8 5 12 10 9 6 -3 10 -10 10 -16z"/>
<path d="M2060 320 c0 -13 -7 -20 -19 -20 -46 0 -51 -8 -51 -91 l0 -79 55 0
55 0 0 38 c0 20 3 67 7 105 l6 67 -27 0 c-19 0 -26 -5 -26 -20z m-4 -102 c-7
-51 -12 -66 -20 -57 -8 9 7 109 17 109 6 0 7 -19 3 -52z"/>
<path d="M2606 332 c-2 -4 -7 -44 -11 -89 l-7 -83 25 0 c23 0 25 4 32 75 4 41
11 75 17 75 6 0 8 -24 3 -69 -7 -70 -1 -86 28 -75 10 3 17 27 21 73 9 92 5
100 -55 99 -27 0 -51 -3 -53 -6z"/>
<path d="M2466 318 c-3 -7 -7 -37 -10 -65 -6 -59 9 -85 44 -76 11 3 20 0 20
-6 0 -6 -16 -11 -36 -11 -50 0 -39 -24 12 -28 57 -4 70 15 78 116 l6 82 -55 0
c-36 0 -57 -4 -59 -12z m59 -60 c-8 -46 -12 -55 -20 -46 -9 9 7 88 17 88 6 0
7 -17 3 -42z"/>
<path d="M2278 309 c-29 -17 -23 -64 12 -89 29 -21 41 -50 20 -50 -5 0 -10 7
-10 15 0 8 -8 15 -18 15 -25 0 -31 -7 -25 -31 7 -24 47 -35 79 -20 35 15 35
77 0 93 -25 11 -41 36 -31 46 3 3 11 -2 18 -12 10 -14 15 -15 31 -3 17 13 17
14 1 30 -18 19 -51 22 -77 6z"/>
<path d="M2386 283 c-3 -21 -6 -59 -6 -85 0 -45 2 -48 25 -48 20 0 25 5 25 24
0 12 3 51 6 85 7 60 7 61 -18 61 -22 0 -26 -6 -32 -37z"/>
<path d="M2147 298 c-19 -14 -34 -125 -20 -145 5 -6 20 -14 35 -18 21 -5 33
-1 52 19 33 32 34 59 4 54 -15 -2 -24 -11 -26 -26 -4 -29 -22 -18 -22 13 0 19
6 24 33 27 27 2 33 8 35 31 2 16 -2 35 -9 43 -14 17 -59 18 -82 2z m43 -34 c0
-8 -4 -12 -10 -9 -5 3 -10 10 -10 16 0 5 5 9 10 9 6 0 10 -7 10 -16z"/>
<path d="M1823 248 l-11 -43 -1 38 c-1 37 -1 37 -45 37 -43 0 -44 -1 -52 -37
l-8 -38 -5 35 c-8 48 -32 45 -47 -5 l-12 -40 -1 38 -1 37 -45 0 c-38 0 -45 -3
-45 -19 0 -11 -3 -28 -7 -38 -6 -14 -9 -10 -13 17 -7 47 -30 45 -46 -5 l-12
-40 -1 38 c-1 30 -5 37 -21 37 -18 0 -20 -7 -20 -62 0 -89 6 -106 36 -100 15
3 24 11 24 23 0 10 5 21 10 24 6 4 10 -5 10 -20 0 -23 4 -26 28 -23 25 3 28 8
37 65 13 82 25 90 25 17 0 -32 4 -64 8 -71 11 -18 52 -4 52 18 0 10 5 21 10
24 6 4 10 -5 10 -20 0 -23 4 -26 27 -23 26 3 28 8 39 71 14 89 24 95 24 16 0
-36 5 -70 11 -76 17 -17 45 -4 56 25 l11 27 1 -28 c1 -25 4 -28 28 -25 26 3
29 8 40 68 17 91 16 100 -7 100 -15 0 -20 -7 -20 -24 0 -14 -4 -28 -10 -31 -6
-4 -10 7 -10 24 0 24 -5 31 -19 31 -13 0 -21 -11 -28 -42z"/>
<path d="M3880 260 c0 -11 7 -20 15 -20 8 0 15 9 15 20 0 11 -7 20 -15 20 -8
0 -15 -9 -15 -20z"/>
<path d="M6198 263 c7 -3 16 -2 19 1 4 3 -2 6 -13 5 -11 0 -14 -3 -6 -6z"/>
<path d="M1941 161 c-15 -10 -8 -41 9 -41 15 0 25 29 14 40 -5 5 -15 5 -23 1z"/>
</g>
</svg>
