<?xml version="1.0" standalone="no"?>
<!DOCTYPE svg PUBLIC "-//W3C//DTD SVG 20010904//EN"
 "http://www.w3.org/TR/2001/REC-SVG-20010904/DTD/svg10.dtd">
<svg version="1.0" xmlns="http://www.w3.org/2000/svg"
 width="655.000000pt" height="654.000000pt" viewBox="0 0 655.000000 654.000000"
 preserveAspectRatio="xMidYMid meet">

<g transform="translate(0.000000,654.000000) scale(0.100000,-0.100000)"
fill="#000000" stroke="none">
<path d="M10 3265 l0 -3265 3270 0 3270 0 0 3265 0 3265 -3270 0 -3270 0 0
-3265z m2486 3044 c38 -14 87 -37 108 -51 l37 -26 52 29 c106 58 244 79 304
44 15 -9 19 -13 8 -9 -76 26 -197 8 -280 -41 -73 -44 -71 -42 -52 -62 36 -41
60 -116 60 -189 -1 -140 -85 -258 -236 -329 -119 -57 -180 -64 -572 -64 -192
0 -359 2 -372 5 -31 8 -29 32 3 44 35 14 239 13 357 -2 91 -11 100 -11 140 9
56 27 134 98 209 192 101 125 199 229 276 293 83 70 83 75 -11 121 -212 104
-522 57 -686 -102 -150 -146 -124 -341 45 -341 144 0 319 140 319 255 0 51
-16 72 -61 81 -39 7 -82 -8 -128 -45 l-31 -25 25 28 c35 40 72 56 125 56 88 0
121 -77 76 -177 -74 -163 -354 -247 -481 -144 -45 36 -60 65 -60 121 0 139
153 274 380 337 75 20 103 23 230 20 125 -3 155 -7 216 -28z m1399 -180 c13
-20 -72 -89 -89 -72 -12 12 -6 52 10 67 18 18 69 21 79 5z m-440 -159 c3 -5
-12 -20 -34 -34 l-39 -25 -3 -85 c-3 -69 -8 -90 -27 -116 -13 -17 -21 -34 -18
-37 8 -8 78 39 166 112 105 87 168 125 207 125 18 0 33 -4 33 -8 0 -4 -23 -35
-51 -67 -103 -121 -136 -185 -95 -185 14 0 82 50 186 135 98 81 242 144 296
131 14 -4 26 -16 30 -31 l6 -25 35 30 c34 30 63 36 70 14 2 -6 -23 -44 -55
-85 -104 -134 -165 -222 -147 -216 35 14 163 109 264 196 111 97 179 133 206
111 33 -28 18 -64 -79 -189 -17 -22 6 -7 104 69 99 78 147 108 191 120 64 19
104 -13 78 -62 -7 -13 -39 -58 -72 -101 -47 -60 -58 -80 -49 -89 16 -16 81 19
158 84 53 46 64 53 64 44 0 -10 -67 -69 -125 -110 -69 -50 -122 -70 -159 -60
-57 14 -41 68 54 179 87 102 69 118 -50 41 -36 -24 -112 -82 -170 -129 -76
-63 -112 -87 -132 -87 -16 0 -28 6 -28 13 0 15 34 67 108 165 84 111 49 111
-78 0 -122 -106 -162 -137 -245 -188 -73 -45 -88 -61 -170 -172 -107 -147
-299 -342 -409 -417 -120 -82 -200 -107 -260 -80 -31 14 -37 37 -21 82 33 97
191 225 542 437 132 80 148 93 193 155 48 67 58 94 23 63 -26 -22 -93 -54
-131 -63 -64 -14 -104 45 -72 106 16 28 5 24 -56 -26 -97 -80 -165 -103 -198
-69 -30 29 -13 72 66 167 22 26 38 47 35 47 -2 0 -46 -34 -98 -76 -127 -102
-217 -146 -311 -152 -64 -4 -76 -1 -100 18 -21 16 -28 30 -28 57 l0 35 -32
-24 c-67 -51 -140 -81 -208 -85 -82 -5 -105 10 -105 67 0 53 44 113 123 167
68 47 159 78 198 69 28 -7 41 -45 25 -74 -15 -28 -95 -76 -171 -103 -79 -27
-90 -35 -90 -65 0 -78 138 -36 273 84 51 45 81 51 101 19 9 -14 4 -24 -32 -56
-23 -21 -42 -43 -42 -49 0 -29 14 -42 47 -42 47 0 67 13 102 63 29 43 84 167
77 174 -2 2 -31 -15 -65 -38 -33 -24 -63 -40 -67 -37 -3 4 12 18 35 32 22 14
71 52 108 84 80 69 105 82 118 62z m-842 -1033 c56 -16 107 -76 107 -128 0
-109 -87 -165 -272 -173 -49 -3 -98 -11 -114 -19 -41 -22 -110 -96 -194 -210
-40 -54 -100 -120 -134 -148 -65 -52 -178 -115 -261 -144 -27 -9 -57 -20 -65
-23 -49 -18 275 -28 380 -12 83 14 191 65 255 121 128 114 293 179 339 133 9
-8 16 -20 16 -25 0 -5 17 2 37 16 67 45 112 25 57 -26 -38 -36 -144 -178 -144
-194 0 -57 85 2 335 234 105 98 164 141 213 156 12 3 22 3 22 -2 0 -5 -37 -51
-81 -103 -93 -109 -141 -171 -135 -177 2 -3 29 15 58 39 100 82 196 115 243
84 31 -20 32 -52 5 -106 l-20 -40 41 0 c35 0 49 7 91 45 93 83 245 139 277
102 41 -50 -33 -108 -187 -147 -36 -9 -46 -17 -58 -46 -11 -26 -12 -39 -3 -55
9 -19 17 -21 55 -15 62 8 109 35 216 121 152 123 292 181 338 140 26 -23 25
-55 0 -83 -22 -23 -60 -30 -60 -10 0 6 5 26 12 45 6 18 9 35 5 39 -14 14 -69
-21 -118 -74 -89 -98 -113 -174 -56 -180 63 -7 136 33 288 157 63 52 182 111
237 118 43 6 82 -10 82 -32 0 -21 14 -19 34 4 19 21 69 36 86 26 5 -3 -24 -46
-65 -96 -82 -98 -111 -147 -98 -160 16 -16 86 30 196 126 140 123 202 156 235
123 19 -19 14 -43 -23 -97 -39 -60 -34 -58 57 21 74 63 116 88 148 88 27 0 26
-6 -15 -51 -40 -44 -53 -83 -35 -104 21 -26 44 -17 130 51 103 81 132 96 177
92 l35 -3 -61 -74 c-82 -97 -115 -147 -108 -166 11 -26 80 14 178 103 92 83
227 152 297 152 29 0 62 -26 62 -48 0 -14 1 -14 13 0 33 41 107 65 107 35 0
-8 -12 -24 -26 -38 -14 -13 -53 -59 -86 -103 -43 -58 -58 -86 -56 -105 5 -39
34 -37 136 8 49 23 101 41 116 41 52 0 87 -70 51 -100 -12 -10 -15 -9 -15 7 0
10 -7 29 -16 41 -22 32 -62 28 -161 -14 -126 -54 -176 -48 -192 24 l-6 31 -57
-36 c-39 -24 -74 -37 -107 -41 -44 -4 -51 -2 -66 22 -16 25 -17 30 -2 67 l16
40 -62 -49 c-85 -67 -120 -84 -170 -80 -37 3 -42 6 -45 30 -4 32 18 76 61 126
18 20 39 46 47 57 14 19 14 19 -5 5 -11 -8 -46 -36 -78 -62 -63 -51 -96 -59
-135 -32 -16 11 -22 25 -22 55 0 36 -2 39 -19 30 -10 -6 -65 -53 -122 -106
-103 -94 -141 -117 -161 -97 -11 11 28 76 108 179 47 60 52 73 30 73 -15 0
-51 -28 -186 -142 -103 -89 -154 -118 -204 -118 -40 0 -62 27 -50 62 l6 21
-28 -20 c-84 -59 -160 -78 -198 -50 -19 14 -19 58 -1 101 6 13 -9 6 -46 -22
-67 -51 -150 -89 -209 -98 -45 -7 -70 -19 -70 -35 0 -5 11 -9 25 -9 28 0 65
-32 65 -56 0 -25 -56 -74 -87 -76 -72 -4 -127 13 -144 43 -13 24 -3 24 28 -1
53 -41 147 -15 141 38 -3 23 -8 27 -42 30 l-38 3 27 28 26 29 -25 25 c-29 30
-30 37 -12 90 8 20 12 37 11 37 -2 0 -25 -18 -51 -40 -60 -50 -158 -98 -216
-106 -29 -4 -56 -1 -82 10 l-39 16 6 56 c5 47 3 55 -9 50 -9 -3 -31 -6 -50 -6
-24 0 -44 -9 -71 -34 -58 -52 -120 -79 -183 -80 -49 -1 -55 1 -58 20 -4 31 39
61 125 86 84 24 119 58 130 122 5 34 4 36 -23 36 -46 0 -151 -68 -234 -151
-87 -87 -274 -325 -451 -574 -137 -192 -165 -225 -191 -225 -28 0 -22 20 33
111 111 183 254 381 486 672 73 92 130 167 126 167 -5 0 -55 -44 -113 -97
-132 -121 -210 -173 -260 -173 -44 0 -64 20 -58 55 5 25 5 26 -21 8 -96 -65
-172 -80 -207 -42 -17 19 -17 23 -3 63 l16 43 -73 -47 c-109 -71 -172 -85
-379 -84 -330 1 -421 1 -527 0 -118 -1 -147 9 -115 42 15 14 37 17 140 17 67
0 158 -3 203 -5 79 -5 82 -4 167 38 97 48 163 107 290 260 83 99 158 163 247
211 30 17 50 31 45 31 -6 0 -89 14 -185 31 -317 55 -406 57 -508 7 -78 -37
-114 -125 -75 -184 42 -65 177 -88 261 -45 50 25 65 51 60 101 -2 28 0 36 10
32 25 -9 33 -50 17 -88 -19 -46 -85 -76 -180 -81 -59 -4 -77 -1 -115 19 -64
33 -93 80 -86 138 13 91 107 161 246 180 86 12 111 10 383 -32 232 -35 424
-37 484 -5 42 22 67 61 67 103 0 69 -76 113 -195 114 -115 0 -202 -39 -239
-109 -11 -20 -19 -29 -20 -20 0 28 44 82 91 112 74 45 178 54 282 24z m2813
-371 c9 -22 -12 -52 -47 -66 -36 -15 -53 -1 -40 34 14 36 76 59 87 32z m-4937
-245 c-40 -41 -39 -83 4 -126 22 -22 46 -35 77 -40 40 -7 46 -5 59 16 66 106
273 213 326 169 57 -47 -38 -127 -228 -194 -14 -4 -17 -14 -15 -38 3 -29 7
-33 36 -36 44 -4 123 33 201 96 70 57 96 64 36 10 -91 -80 -208 -138 -282
-138 -44 0 -82 27 -89 65 -6 33 -9 35 -45 35 -123 0 -182 99 -105 176 19 19
39 34 44 34 6 0 -3 -13 -19 -29z m3891 -871 c86 -86 -142 -305 -398 -385 -48
-15 -96 -31 -108 -35 -19 -7 -194 -228 -194 -244 0 -3 39 -7 88 -7 102 -2 69
-16 -41 -18 l-67 -1 -113 -152 c-103 -139 -257 -354 -456 -636 -93 -132 -128
-172 -152 -172 -10 0 -19 2 -19 5 0 29 177 303 357 552 112 156 124 177 130
225 l6 53 -24 -22 c-34 -30 -105 -65 -126 -62 -10 2 -38 -9 -63 -23 -63 -37
-97 -49 -147 -50 -71 -1 -105 45 -78 109 8 20 14 38 12 40 -2 2 -24 -14 -48
-35 -79 -69 -139 -105 -185 -110 -91 -10 -97 43 -19 163 l20 30 -21 -15 c-12
-8 -46 -35 -75 -59 -68 -55 -179 -109 -249 -120 -88 -14 -150 15 -150 71 0 15
-2 28 -5 28 -3 0 -29 -18 -58 -40 -105 -79 -231 -118 -336 -105 -110 14 -164
51 -177 121 -22 118 103 251 289 310 56 17 57 18 51 49 -3 17 2 51 11 77 l16
47 -31 42 c-22 31 -30 53 -30 84 0 127 167 159 299 57 33 -25 42 -27 111 -24
133 6 220 -35 220 -103 0 -43 -23 -71 -83 -102 -44 -23 -67 -28 -157 -31 -99
-4 -130 1 -236 33 -15 5 -23 0 -32 -20 -7 -14 -12 -37 -12 -50 0 -24 3 -25 59
-25 74 0 111 -13 111 -39 0 -25 -19 -31 -94 -31 -42 0 -74 6 -101 20 l-38 19
-51 -27 c-66 -36 -147 -116 -174 -173 -14 -28 -22 -64 -22 -95 0 -43 4 -55 30
-79 27 -26 40 -30 103 -33 56 -3 85 1 129 18 67 25 165 88 205 131 41 44 79
62 103 49 29 -16 25 -32 -20 -73 -46 -41 -52 -72 -15 -89 33 -15 83 8 119 54
25 34 91 177 84 184 -2 2 -26 -13 -54 -32 -63 -45 -84 -57 -84 -46 0 5 21 23
48 39 26 17 75 57 109 88 50 45 68 56 90 53 28 -3 28 -3 -14 -32 l-43 -29 0
-72 c0 -57 -5 -81 -25 -119 -13 -25 -21 -46 -17 -46 18 0 102 62 187 136 l90
79 -35 5 c-27 4 -31 7 -17 13 10 4 30 7 43 7 18 0 41 18 82 63 138 152 201
202 225 178 7 -7 -10 -31 -49 -73 -69 -74 -134 -152 -134 -162 0 -3 23 -6 50
-6 28 0 50 -4 50 -10 0 -6 -28 -10 -64 -10 l-63 0 -40 -57 c-69 -100 -99 -161
-86 -174 19 -19 54 -3 138 66 151 124 272 190 334 183 l26 -3 -33 -18 c-78
-42 -202 -191 -202 -242 0 -65 164 30 190 110 6 19 27 48 46 64 25 22 34 39
34 62 0 37 19 35 38 -4 16 -33 -4 -86 -50 -134 -35 -36 -33 -47 6 -37 31 7
116 80 116 100 0 7 14 29 31 48 22 26 43 38 84 47 45 10 59 18 79 48 13 20 53
72 89 116 l65 80 -77 6 c-152 12 -241 79 -241 181 0 57 15 91 62 135 85 82
261 83 318 3 27 -37 26 -50 -1 -16 -73 93 -237 83 -310 -17 -24 -33 -29 -50
-29 -97 0 -110 66 -163 211 -168 l85 -4 26 34 c211 274 488 458 568 378z
m1073 -119 c56 -27 97 -89 96 -142 l-1 -34 -11 38 c-15 48 -58 93 -104 108
-21 7 -73 9 -132 7 -213 -10 -302 -81 -626 -498 -187 -242 -217 -290 -180
-290 27 0 67 26 160 104 102 85 216 147 284 153 l46 5 -45 -29 c-60 -40 -167
-153 -185 -197 -16 -38 -11 -66 11 -66 21 0 84 35 121 67 17 16 39 47 48 71
10 23 31 53 48 67 20 15 32 34 33 52 1 15 3 30 3 32 1 2 10 -4 21 -14 36 -33
26 -75 -38 -152 -29 -37 -32 -43 -15 -43 21 0 54 20 98 60 35 32 64 43 84 31
16 -10 117 59 199 135 32 30 56 44 74 44 37 0 35 -5 -11 -34 l-38 -25 -5 -79
c-3 -58 -11 -90 -27 -117 -37 -64 -15 -58 94 25 36 28 65 46 65 41 0 -28 -162
-131 -253 -160 -50 -17 -138 -17 -165 0 -24 15 -44 62 -36 84 5 12 -4 10 -40
-6 -26 -11 -55 -17 -65 -14 -11 3 -22 1 -26 -5 -10 -16 -99 -59 -146 -69 -85
-19 -137 30 -110 104 6 17 11 35 11 39 0 4 -30 -18 -67 -49 -108 -89 -181
-115 -218 -79 -11 11 -14 25 -10 42 l6 25 -33 -22 c-118 -78 -208 -80 -208 -5
0 19 5 44 10 55 16 29 4 23 -50 -23 -61 -52 -126 -88 -162 -88 -36 0 -61 26
-54 56 8 30 6 30 -47 -6 -59 -40 -127 -58 -161 -42 -21 9 -26 18 -26 50 0 105
186 249 310 240 34 -2 47 -8 55 -24 l11 -22 29 24 c30 24 85 33 85 15 0 -6
-19 -31 -42 -58 -63 -73 -128 -164 -128 -179 0 -38 63 -5 184 98 148 126 309
185 349 128 14 -20 18 -16 100 87 141 179 268 299 426 401 163 107 298 134
404 83z m-4184 -667 c19 -24 29 -64 16 -64 -3 0 -17 7 -30 16 -22 14 -34 15
-103 4 -62 -10 -83 -10 -107 1 l-30 13 45 6 c25 3 63 16 85 28 56 30 98 29
124 -4z m1437 -824 c44 0 82 -88 52 -118 -24 -24 -41 -14 -34 22 15 81 -71
106 -172 51 -89 -48 -204 -180 -360 -411 -152 -227 -203 -290 -282 -350 l-50
-38 37 -18 c66 -32 86 -25 184 67 99 93 249 175 319 175 33 0 60 -19 60 -41 0
-20 1 -20 31 5 33 28 72 42 88 31 7 -3 -22 -46 -68 -103 -90 -111 -107 -140
-93 -154 16 -16 79 24 187 118 149 129 207 162 240 134 26 -22 16 -57 -36
-125 -28 -37 -49 -68 -47 -70 2 -2 32 21 68 51 82 69 196 140 237 149 41 8 73
-9 73 -40 0 -14 -21 -51 -50 -87 -57 -71 -87 -124 -77 -135 13 -13 91 34 177
106 97 81 218 148 283 157 38 6 46 3 60 -16 21 -30 9 -58 -41 -96 -34 -26
-118 -64 -194 -88 -25 -8 -24 -62 1 -75 25 -14 103 9 161 48 25 17 83 62 130
101 113 95 160 122 204 118 l35 -3 -119 -153 c-66 -84 -120 -155 -120 -157 0
-19 151 82 257 170 163 136 326 191 353 120 l9 -25 27 25 c32 30 71 42 86 27
8 -8 0 -24 -30 -56 -64 -69 -132 -166 -132 -188 0 -15 4 -18 23 -12 31 9 90
52 167 119 73 63 205 134 268 142 35 5 44 2 64 -20 l22 -25 64 87 c131 174
383 401 527 474 117 58 236 73 310 37 79 -38 106 -75 104 -145 -1 -31 -3 -39
-6 -20 -7 57 -25 86 -72 113 -42 25 -54 27 -146 26 -232 -2 -333 -86 -726
-606 -94 -125 -120 -170 -105 -185 12 -12 71 25 161 101 93 79 220 150 288
161 39 6 52 -9 16 -20 -30 -10 -148 -123 -181 -174 -15 -25 -28 -55 -28 -68 0
-65 169 26 185 99 4 17 25 47 46 68 26 25 39 47 39 64 0 28 9 33 28 14 26 -26
14 -84 -29 -138 -22 -28 -38 -54 -36 -57 9 -9 73 27 111 63 27 26 45 34 64 32
42 -5 41 -40 -3 -74 -30 -22 -36 -33 -33 -58 3 -27 7 -31 35 -34 62 -6 104 38
158 168 36 83 34 85 -25 40 -42 -32 -80 -53 -86 -47 -2 2 22 22 53 44 32 23
84 64 116 92 32 28 67 51 78 51 27 0 24 -17 -8 -37 -46 -28 -53 -43 -53 -113
0 -52 -6 -77 -25 -114 -13 -25 -21 -46 -16 -46 10 0 118 75 148 103 13 11 25
18 28 15 8 -8 -64 -67 -130 -107 -164 -99 -323 -93 -325 12 0 32 1 31 -36 12
-16 -8 -41 -15 -57 -15 -15 0 -44 -11 -65 -25 -73 -48 -160 -67 -203 -44 -38
20 -42 61 -13 134 5 13 -14 2 -52 -31 -86 -73 -121 -95 -165 -105 -58 -13 -83
2 -76 48 6 34 6 35 -16 19 -35 -25 -109 -63 -139 -70 -35 -8 -77 12 -84 39 -3
12 2 39 10 60 18 42 23 45 -64 -26 -111 -90 -207 -101 -198 -24 2 22 0 31 -7
27 -5 -3 -30 -19 -55 -34 -120 -76 -214 -43 -166 59 l17 35 -28 -21 c-51 -40
-198 -138 -230 -155 -20 -10 -70 -67 -134 -154 -242 -325 -547 -548 -654 -478
-51 34 -27 107 65 196 92 90 193 159 512 354 61 37 87 61 124 114 26 37 81
109 122 160 82 104 75 105 -43 6 -146 -122 -224 -164 -305 -164 -85 0 -115 39
-87 111 l16 40 -41 -33 c-116 -95 -184 -127 -232 -109 -54 21 -29 78 92 215
44 50 31 66 -29 36 -52 -26 -122 -77 -242 -177 -65 -54 -95 -73 -117 -73 -17
0 -30 4 -30 8 0 8 56 92 136 205 59 83 -3 52 -146 -73 -108 -95 -164 -133
-213 -144 -40 -9 -67 9 -67 44 0 17 -2 30 -5 30 -2 0 -26 -14 -52 -30 -98 -63
-175 -59 -181 7 -2 18 2 42 9 55 7 13 -22 -10 -64 -49 -43 -40 -85 -73 -96
-73 -10 0 -37 14 -59 30 -23 17 -45 30 -49 30 -4 0 -26 -10 -51 -21 -31 -16
-47 -18 -54 -11 -8 8 7 19 54 41 79 35 102 62 233 271 150 240 238 351 372
465 107 92 239 154 291 139 8 -2 20 -4 28 -4z m1264 -414 c0 -28 -60 -72 -86
-62 -18 7 -18 26 2 54 18 26 84 32 84 8z m-2340 -66 c0 -6 -28 -45 -63 -88
-264 -323 -725 -961 -711 -984 8 -13 16 -5 79 84 135 189 407 549 474 625 85
98 167 167 236 199 58 28 92 30 123 8 89 -62 -116 -284 -262 -284 -46 0 -76
18 -76 46 0 8 -4 14 -8 14 -16 0 -241 -293 -426 -555 -81 -114 -128 -170 -158
-186 -24 -13 -58 6 -58 32 0 55 166 300 479 709 70 91 131 171 136 179 4 8
-35 -16 -87 -52 -172 -120 -314 -179 -435 -181 -58 0 -78 3 -100 20 -38 28
-57 69 -47 102 6 23 8 24 11 7 2 -11 6 -30 8 -41 11 -51 136 -69 259 -38 83
21 228 92 304 149 34 26 106 86 159 134 54 48 107 93 118 99 25 14 45 15 45 2z"/>
<path d="M2549 6089 c-189 -260 -262 -331 -411 -402 -55 -26 -83 -44 -75 -49
7 -4 57 -8 112 -8 117 0 197 24 289 85 144 95 234 266 206 392 -12 51 -27 83
-39 83 -5 0 -42 -46 -82 -101z"/>
<path d="M4022 5884 c-43 -22 -165 -136 -192 -180 -25 -39 -21 -64 11 -64 66
0 255 177 247 232 -4 29 -24 32 -66 12z"/>
<path d="M2906 5835 c-98 -97 -92 -124 12 -64 76 43 119 119 67 119 -16 0 -42
-18 -79 -55z"/>
<path d="M3721 5429 c-265 -164 -386 -258 -443 -348 -35 -56 -39 -116 -8 -126
79 -25 254 118 446 366 120 155 137 179 128 179 -5 -1 -61 -33 -123 -71z"/>
<path d="M2530 4283 c-34 -25 -84 -73 -111 -105 -47 -57 -60 -90 -39 -103 22
-14 120 45 182 107 70 71 94 109 85 132 -11 28 -54 17 -117 -31z"/>
<path d="M3565 4312 c-40 -25 -101 -95 -87 -100 40 -13 142 54 142 94 0 29
-15 30 -55 6z"/>
<path d="M4309 4301 c-54 -35 -173 -158 -184 -190 -21 -67 70 -40 168 50 71
65 107 114 107 148 0 30 -36 27 -91 -8z"/>
<path d="M5534 4302 c-62 -46 -174 -163 -180 -189 -11 -43 10 -49 68 -22 55
25 172 133 197 181 31 60 -19 77 -85 30z"/>
<path d="M3082 4145 c-54 -17 -92 -41 -92 -60 0 -23 32 -18 81 13 44 29 79 63
63 61 -5 0 -28 -6 -52 -14z"/>
<path d="M850 4308 c-43 -29 -126 -131 -112 -136 19 -6 132 60 153 90 21 29
22 59 3 65 -6 2 -26 -7 -44 -19z"/>
<path d="M4249 3432 c-59 -30 -130 -96 -240 -222 -131 -152 -133 -155 -85
-146 107 20 304 131 372 209 47 54 78 121 70 153 -5 20 -13 24 -44 24 -21 0
-54 -8 -73 -18z"/>
<path d="M2064 3256 c-77 -34 -84 -118 -15 -180 21 -19 22 -19 54 12 17 17 64
45 102 63 39 18 72 34 74 35 10 8 -28 39 -74 60 -57 27 -96 29 -141 10z"/>
<path d="M2382 3180 c-43 -10 -43 -10 -31 -54 15 -55 6 -65 -15 -17 -11 22
-24 41 -31 41 -24 0 -165 -112 -165 -132 0 -13 101 -38 178 -45 140 -12 262
44 262 119 -1 42 -17 64 -63 83 -39 16 -82 18 -135 5z"/>
<path d="M2106 2881 c-9 -13 51 -41 86 -41 35 0 56 16 41 31 -17 17 -118 25
-127 10z"/>
<path d="M3525 2753 c-34 -9 -63 -33 -78 -66 -16 -36 -32 -136 -19 -122 21 23
124 168 129 181 5 14 2 15 -32 7z"/>
<path d="M3955 2753 c-78 -41 -215 -184 -215 -224 0 -30 48 -24 105 12 59 38
164 145 171 176 8 28 -1 53 -18 53 -7 -1 -26 -8 -43 -17z"/>
<path d="M4443 2749 c-74 -36 -213 -184 -213 -226 0 -19 46 -16 89 6 44 23
152 126 181 173 14 23 16 36 9 50 -12 23 -15 23 -66 -3z"/>
<path d="M5295 2714 c-16 -14 -47 -34 -67 -44 -20 -11 -39 -28 -43 -39 -3 -11
-21 -31 -40 -46 -43 -32 -47 -70 -10 -87 47 -21 104 20 149 109 27 54 56 133
48 133 -4 -1 -20 -12 -37 -26z"/>
<path d="M2349 1170 c-57 -37 -166 -150 -179 -185 -19 -50 6 -58 73 -24 48 25
158 128 188 175 40 65 -7 85 -82 34z"/>
<path d="M3435 1182 c-33 -20 -125 -118 -125 -133 0 -42 164 65 170 111 6 45
-1 48 -45 22z"/>
<path d="M4094 1171 c-50 -38 -134 -118 -162 -155 -26 -34 -29 -76 -6 -76 53
0 215 130 253 202 31 60 -20 77 -85 29z"/>
<path d="M4595 1178 c-96 -69 -195 -178 -195 -215 0 -23 3 -25 32 -19 66 13
196 123 238 201 28 52 -19 73 -75 33z"/>
<path d="M3360 757 c-253 -159 -349 -229 -422 -305 -57 -59 -80 -92 -88 -123
-11 -40 -10 -45 10 -61 72 -58 275 109 495 407 69 94 89 125 79 124 -5 0 -38
-19 -74 -42z"/>
<path d="M1645 1181 c-30 -13 -124 -86 -141 -109 -8 -12 -10 -23 -5 -26 14 -9
2 -42 -25 -67 -18 -17 -21 -25 -13 -36 17 -20 41 -16 90 15 107 69 205 233
137 231 -13 0 -32 -4 -43 -8z"/>
</g>
</svg>
